<svg width="24" height="24" viewBox="0 0 24 24" fill="none" xmlns="http://www.w3.org/2000/svg">
<mask id="path-2-inside-1_3316_15644" fill="white">
<path d="M12.5234 4C17.2308 4 21.0469 7.19624 21.0469 11.1387C21.0467 15.081 17.2307 18.2764 12.5234 18.2764C11.7374 18.2764 10.9767 18.1854 10.2539 18.0186L6.97461 19.9121V16.5547C5.15431 15.2456 4.0001 13.3057 4 11.1387C4 7.19625 7.81607 4.00001 12.5234 4Z"/>
</mask>
<path d="M12.5234 4V2.75H12.5234L12.5234 4ZM21.0469 11.1387L22.2969 11.1387V11.1387H21.0469ZM12.5234 18.2764L12.5234 19.5264H12.5234V18.2764ZM10.2539 18.0186L10.5351 16.8006L10.0553 16.6898L9.62884 16.9361L10.2539 18.0186ZM6.97461 19.9121H5.72461V22.0773L7.59967 20.9946L6.97461 19.9121ZM6.97461 16.5547H8.22461V15.914L7.70444 15.5399L6.97461 16.5547ZM4 11.1387H2.75V11.1387L4 11.1387ZM12.5234 4V5.25C16.7572 5.25 19.7969 8.08501 19.7969 11.1387H21.0469H22.2969C22.2969 6.30747 17.7044 2.75 12.5234 2.75V4ZM21.0469 11.1387L19.7969 11.1386C19.7967 14.192 16.7573 17.0264 12.5234 17.0264V18.2764V19.5264C17.7042 19.5264 22.2967 15.9699 22.2969 11.1387L21.0469 11.1387ZM12.5234 18.2764L12.5234 17.0264C11.8339 17.0264 11.1675 16.9466 10.5351 16.8006L10.2539 18.0186L9.97275 19.2365C10.7858 19.4242 11.6408 19.5264 12.5234 19.5264L12.5234 18.2764ZM10.2539 18.0186L9.62884 16.9361L6.34955 18.8296L6.97461 19.9121L7.59967 20.9946L10.879 19.1011L10.2539 18.0186ZM6.97461 19.9121H8.22461V16.5547H6.97461H5.72461V19.9121H6.97461ZM6.97461 16.5547L7.70444 15.5399C6.15114 14.4228 5.25007 12.8352 5.25 11.1386L4 11.1387L2.75 11.1387C2.75012 13.7762 4.15749 16.0684 6.24478 17.5695L6.97461 16.5547ZM4 11.1387H5.25C5.25 8.08502 8.2897 5.25001 12.5234 5.25L12.5234 4L12.5234 2.75C7.34244 2.75001 2.75 6.30748 2.75 11.1387H4Z" fill="#878787" mask="url(#path-2-inside-1_3316_15644)"/>
</svg>
