<svg width="24" height="24" viewBox="0 0 24 24" fill="none" xmlns="http://www.w3.org/2000/svg">
<path d="M21.8132 11.9153C21.9871 12.0992 22.0107 12.1814 22.0169 12.2198C22.0264 12.2791 22.0261 12.3394 22.0162 12.3986C22.0098 12.4368 21.9861 12.5193 21.8104 12.7025C21.6276 12.8931 21.3545 13.1204 20.9327 13.4683C18.9489 15.1049 17.4955 16.3022 16.2544 17.1316C15.0236 17.954 14.0496 18.3799 13.0365 18.5099C12.4515 18.5848 11.8596 18.589 11.2736 18.523C10.2584 18.4087 9.27871 17.9986 8.03703 17.1965C6.78494 16.3876 5.31656 15.2144 3.31101 13.6112L3.17498 13.5028C2.72323 13.1417 2.42907 12.9058 2.23378 12.7066C2.04645 12.5155 2.02297 12.4291 2.01695 12.389C2.00908 12.3362 2.00875 12.2822 2.01626 12.2295C2.02201 12.1893 2.04549 12.1029 2.23171 11.9104C2.42563 11.71 2.71755 11.472 3.16669 11.108L3.2896 11.0086C5.28425 9.39204 6.7449 8.20922 7.99076 7.39158C9.22638 6.58066 10.2011 6.16255 11.2121 6.04021C11.8385 5.96441 12.4721 5.96992 13.0973 6.0554C14.1062 6.19336 15.0744 6.62595 16.2972 7.4558C17.5302 8.29257 18.9725 9.49757 20.9417 11.1446C21.3605 11.4949 21.632 11.7237 21.8132 11.9153Z" stroke="#878787" stroke-width="1.25"/>
<circle cx="12.0498" cy="12.05" r="2.375" stroke="#878787" stroke-width="1.25"/>
</svg>
